<svg xmlns="http://www.w3.org/2000/svg" viewBox="0 0 32 32">
    <defs>
        <linearGradient id="grad" x1="0%" y1="0%" x2="100%" y2="100%">
            <stop offset="0%" style="stop-color:#6366f1;stop-opacity:1" />
            <stop offset="100%" style="stop-color:#8b5cf6;stop-opacity:1" />
        </linearGradient>
    </defs>
    <rect width="32" height="32" rx="8" fill="url(#grad)" />
    <g transform="translate(6, 6)" fill="none" stroke="white" stroke-width="1.5"
        stroke-linecap="round" stroke-linejoin="round">
        <path
            d="M10 2.5a3 3 0 1 0-5.997.125 4 4 0 0 0-2.526 5.77 4 4 0 0 0 .556 6.588A4 4 0 1 0 10 16Z" />
        <path
            d="M10 2.5a3 3 0 1 1 5.997.125 4 4 0 0 1 2.526 5.77 4 4 0 0 1-.556 6.588A4 4 0 1 1 10 16Z" />
        <path d="M13 11a4.5 4.5 0 0 1-3-4 4.5 4.5 0 0 1-3 4" />
    </g>
</svg>